<svg width="23" height="23" viewBox="0 0 23 23" fill="none" xmlns="http://www.w3.org/2000/svg">
<path d="M20.9464 9.44643H13.9643C13.7375 9.44643 13.5536 9.26253 13.5536 9.03571V2.05357C13.5536 0.919495 12.6341 0 11.5 0C10.3659 0 9.44643 0.919495 9.44643 2.05357V9.03571C9.44643 9.26253 9.26253 9.44643 9.03571 9.44643H2.05357C0.919495 9.44643 0 10.3659 0 11.5C0 12.6341 0.919495 13.5536 2.05357 13.5536H9.03571C9.26253 13.5536 9.44643 13.7375 9.44643 13.9643V20.9464C9.44643 22.0805 10.3659 23 11.5 23C12.6341 23 13.5536 22.0805 13.5536 20.9464V13.9643C13.5536 13.7375 13.7375 13.5536 13.9643 13.5536H20.9464C22.0805 13.5536 23 12.6341 23 11.5C23 10.3659 22.0805 9.44643 20.9464 9.44643Z" fill="#E51E27"/>
</svg>
