<svg width="19" height="18" viewBox="0 0 19 18" fill="none" xmlns="http://www.w3.org/2000/svg">
<path d="M11.0416 0.0628066C10.8212 -0.042327 10.5615 -0.0144603 10.3715 0.138807L4.21041 5.06742H1.26667C0.568735 5.06742 0 5.63616 0 6.33409V11.4008C0 12.1 0.568735 12.6674 1.26667 12.6674H4.21041L10.3702 17.5961C10.4855 17.6873 10.6261 17.7341 10.7667 17.7341C10.8604 17.7341 10.9542 17.7126 11.0416 17.6708C11.2607 17.5657 11.4 17.344 11.4 17.1008V0.634075C11.4 0.390874 11.2607 0.169207 11.0416 0.0628066Z" fill="#E51E27"/>
<path d="M14.6056 4.38846C14.3561 4.14273 13.9558 4.14653 13.7101 4.39353C13.4643 4.64307 13.4669 5.04333 13.7151 5.29033C14.6727 6.23527 15.1997 7.50574 15.1997 8.86741C15.1997 10.2291 14.6727 11.4996 13.7151 12.4445C13.4669 12.689 13.4643 13.0905 13.7101 13.34C13.8342 13.4654 13.9976 13.5275 14.1597 13.5275C14.3206 13.5275 14.4815 13.4667 14.6056 13.3438C15.8064 12.162 16.4663 10.5711 16.4663 8.86741C16.4663 7.16374 15.8064 5.5728 14.6056 4.38846Z" fill="white"/>
<path d="M16.3932 2.60374C16.1436 2.35674 15.7434 2.35927 15.4964 2.60754C15.2506 2.85581 15.2532 3.25734 15.5002 3.50308C16.9404 4.93061 17.7333 6.83569 17.7333 8.86742C17.7333 10.8992 16.9404 12.803 15.5002 14.2305C15.2532 14.4775 15.2506 14.879 15.4964 15.1273C15.6218 15.2514 15.7839 15.3135 15.946 15.3135C16.1069 15.3135 16.269 15.2527 16.3932 15.1298C18.0753 13.4642 19 11.2399 19 8.86742C19 6.49495 18.0753 4.27068 16.3932 2.60374Z" fill="white"/>
</svg>
