<svg width="54" height="48" viewBox="0 0 54 48" fill="none" xmlns="http://www.w3.org/2000/svg">
<path d="M49.7162 4.69742C46.9208 1.6683 43.0852 0 38.9151 0C35.798 0 32.9433 0.984599 30.4302 2.92622C29.1621 3.90629 28.0131 5.10534 27 6.50485C25.9873 5.10575 24.8379 3.90629 23.5694 2.92622C21.0567 0.984599 18.202 0 15.0849 0C10.9148 0 7.07877 1.6683 4.28343 4.69742C1.52147 7.69115 0 11.781 0 16.2142C0 20.777 1.70192 24.9537 5.35583 29.3589C8.62454 33.2994 13.3224 37.2995 18.7627 41.9315C20.6204 43.5133 22.726 45.3063 24.9125 47.2163C25.4901 47.7217 26.2312 48 27 48C27.7684 48 28.5099 47.7217 29.0867 47.2171C31.2731 45.3068 33.38 43.5129 35.2385 41.9302C40.678 37.2991 45.3759 33.2994 48.6446 29.3585C52.2985 24.9537 54 20.777 54 16.2138C54 11.781 52.4785 7.69115 49.7162 4.69742Z" fill="#E51E27"/>
</svg>
