<svg width="54" height="48" viewBox="0 0 54 48" fill="none" xmlns="http://www.w3.org/2000/svg">
<path d="M26.1899 7.09118L27 8.21032L27.81 7.09123C28.7715 5.76301 29.855 4.63462 31.0417 3.71745C33.3833 1.9084 36.0238 1 38.9151 1C42.8097 1 46.3777 2.55431 48.9813 5.3756C51.5575 8.16763 53 12.0083 53 16.2138C53 20.4895 51.4188 24.4479 47.8749 28.72L47.8749 28.7201C44.6736 32.5796 40.0523 36.5184 34.5902 41.1688L34.5902 41.1689L34.5427 41.2093C32.6963 42.7817 30.602 44.5652 28.4288 46.464L28.4282 46.4645C28.0342 46.8092 27.5268 47 27 47C26.4731 47 25.966 46.8094 25.571 46.4637L25.5703 46.4632C23.3809 44.5506 21.2729 42.7555 19.4172 41.1754L19.4111 41.1701L19.411 41.1701C13.9481 36.5189 9.32679 32.5796 6.12552 28.7205C2.58156 24.4479 1 20.4894 1 16.2142C1 12.0082 2.44252 8.16756 5.01842 5.37551C7.62193 2.5543 11.1903 1 15.0849 1C17.9763 1 20.6168 1.90844 22.9579 3.71751L22.958 3.71754C24.145 4.63469 25.2289 5.76344 26.1899 7.09118Z" fill="white" stroke="#E51E27" stroke-width="2"/>
</svg>
